<svg width="64" height="65" viewBox="0 0 64 65" fill="none" xmlns="http://www.w3.org/2000/svg">
  <path
    d="M30.72 1.23901C31.5121 0.781708 32.4879 0.781708 33.28 1.23901L58.4328 15.761C59.2249 16.2183 59.7128 17.0634 59.7128 17.978V47.022C59.7128 47.9366 59.2249 48.7817 58.4328 49.239L33.28 63.761C32.4879 64.2183 31.5121 64.2183 30.72 63.761L5.56719 49.239C4.77512 48.7817 4.28719 47.9366 4.28719 47.022V17.978C4.28719 17.0634 4.77512 16.2183 5.56719 15.761L30.72 1.23901Z"
    fill="#BBD1E2" />
  <path
    d="M29.1734 44.5182C28.9823 44.5182 28.8321 44.4636 28.7229 44.3544C28.6136 44.2725 28.6136 44.2042 28.7229 44.1496C29.3236 44.0404 29.8424 43.8219 30.2793 43.4942C30.7162 43.1392 31.0712 42.7023 31.3443 42.1835C31.9177 41.2278 32.4775 40.272 33.0237 39.3163C33.5971 38.3333 34.1432 37.3502 34.6621 36.3672C35.2901 35.1657 35.9318 33.9642 36.5872 32.7627C37.2425 31.5339 37.8979 30.3188 38.5533 29.1173C39.1813 27.9977 39.7411 26.9191 40.2326 25.8814C40.7241 24.8438 41.0928 24.0928 41.3385 23.6286C41.5297 23.2736 41.8574 22.9596 42.3216 22.6866C42.8131 22.3862 43.291 22.1541 43.7552 21.9902C43.5913 21.9902 43.4275 21.9902 43.2637 21.9902C43.0998 21.9629 42.9223 21.9493 42.7312 21.9493C41.8847 21.9493 40.9563 22.0039 39.9459 22.1131C38.9629 22.195 37.9935 22.3316 37.0377 22.5227C36.1093 22.7139 35.2901 22.9733 34.5801 23.301C33.8702 23.6286 33.3923 24.0246 33.1465 24.4888C33.0373 24.7345 32.9417 24.9803 32.8598 25.2261C32.7779 25.4718 32.7369 25.7176 32.7369 25.9634C32.7369 26.5914 32.9554 27.042 33.3923 27.315C33.4196 27.315 33.4333 27.3423 33.4333 27.3969C33.4333 27.4516 33.3787 27.5062 33.2694 27.5608C33.1875 27.6154 33.1192 27.6291 33.0646 27.6017C32.7916 27.4652 32.4775 27.1375 32.1225 26.6187C31.7949 26.0726 31.5764 25.622 31.4672 25.267C31.3853 24.9393 31.3443 24.639 31.3443 24.3659C31.3443 23.6559 31.5764 23.1098 32.0406 22.7275C32.5048 22.3179 33.0919 22.0312 33.8019 21.8673C34.5119 21.6762 35.2355 21.567 35.9728 21.5397C36.7374 21.4851 37.4064 21.4577 37.9798 21.4577C38.8536 21.4577 39.8913 21.4577 41.0928 21.4577C42.2943 21.4304 43.4002 21.4168 44.4105 21.4168C44.6563 21.4168 44.9294 21.4168 45.2297 21.4168C45.5301 21.3895 45.8441 21.3758 46.1718 21.3758C46.9091 21.3758 47.6737 21.4168 48.4656 21.4987C49.2575 21.5806 49.9811 21.7581 50.6365 22.0312C51.2918 22.3043 51.797 22.7275 52.152 23.301C52.6981 24.1475 52.9712 25.0486 52.9712 26.0043C52.9712 27.0693 52.6572 28.0796 52.0291 29.0353C51.4284 29.9638 50.6638 30.783 49.7353 31.4929C48.8069 32.2029 47.8648 32.7491 46.9091 33.1314C46.008 33.4863 44.9976 33.7321 43.8781 33.8686C42.7858 34.0052 41.8028 34.0734 40.9289 34.0734C40.6559 34.0734 40.3828 34.0734 40.1097 34.0734C39.864 34.0461 39.6455 34.0188 39.4544 33.9915C39.3998 33.9915 39.3725 33.9642 39.3725 33.9096C39.3725 33.8004 39.4817 33.6502 39.7001 33.459C39.9186 33.2406 40.0961 33.145 40.2326 33.1723C40.4511 33.1996 40.6695 33.2133 40.888 33.2133C41.1064 33.2133 41.3385 33.2133 41.5843 33.2133C42.622 33.2133 43.7279 33.0767 44.9021 32.8037C46.0763 32.5306 47.1549 32.0118 48.1379 31.2472C49.1482 30.4553 49.9128 29.3084 50.4317 27.8065C50.5682 27.4789 50.6501 27.1512 50.6774 26.8235C50.732 26.4685 50.7593 26.1272 50.7593 25.7995C50.7593 24.8711 50.5272 24.0519 50.063 23.3419C49.5988 22.6319 48.9298 22.2223 48.056 22.1131C47.9468 22.0858 47.8239 22.0721 47.6873 22.0721C47.5508 22.0721 47.4143 22.0721 47.2777 22.0721C46.7589 22.0721 46.1855 22.1404 45.5574 22.2769C44.9567 22.4135 44.5061 22.6729 44.2057 23.0552C43.5231 23.9563 42.8677 24.9803 42.2397 26.1272C41.6116 27.2468 41.0109 28.3936 40.4374 29.5678C39.864 30.7147 39.3179 31.7933 38.799 32.8037C38.6625 33.0767 38.4031 33.5683 38.0208 34.2782C37.6385 34.9609 37.2152 35.7528 36.751 36.6539C36.2868 37.5277 35.8499 38.4015 35.4403 39.2754C35.0307 40.1492 34.703 40.9274 34.4573 41.6101C34.2388 42.2927 34.1842 42.757 34.2934 43.0027C34.3207 43.03 34.3344 43.071 34.3344 43.1256C34.3344 43.2075 34.2934 43.2485 34.2115 43.2485C33.9931 43.2485 33.7746 43.1939 33.5561 43.0846C33.3377 42.9754 33.0783 42.9208 32.7779 42.9208C32.5048 42.9208 32.2318 42.9891 31.9587 43.1256C31.6856 43.2348 31.3306 43.4396 30.8937 43.74C30.4568 44.0404 29.9653 44.2861 29.4192 44.4773C29.3646 44.5046 29.2826 44.5182 29.1734 44.5182Z"
    fill="#36546B" />
  <path
    d="M16.8954 45.2965C16.0489 45.2965 15.2433 45.0507 14.4787 44.5592C13.7141 44.095 13.1407 43.3714 12.7584 42.3883C12.6219 42.0333 12.5263 41.651 12.4717 41.2414C12.4444 40.8318 12.4307 40.4359 12.4307 40.0536V39.5211C12.4307 39.33 12.4444 39.1525 12.4717 38.9886C12.5263 38.8248 12.6355 38.7429 12.7994 38.7429C12.854 38.7429 12.8813 38.7702 12.8813 38.8248C12.8813 38.9886 12.8676 39.1525 12.8403 39.3163C12.8403 39.4802 12.8403 39.644 12.8403 39.8078C12.8403 41.0912 13.1543 42.0743 13.7824 42.757C14.4378 43.4123 15.2433 43.74 16.199 43.74C17.1548 43.74 18.0832 43.4669 18.9843 42.9208C19.8854 42.3474 20.7183 41.6374 21.4829 40.7909C21.9198 40.3267 22.4113 39.6303 22.9574 38.7019C23.5309 37.7462 24.118 36.6812 24.7187 35.507C25.3468 34.3055 25.9748 33.0767 26.6029 31.8206C27.2309 30.5372 27.8317 29.3084 28.4051 28.1342C28.9786 26.9327 29.4974 25.8814 29.9616 24.9803C30.3985 24.1338 30.9856 23.4648 31.7229 22.9733C32.4602 22.4817 33.0882 22.1404 33.607 21.9493C33.4159 21.9493 33.0063 21.9629 32.3782 21.9902C31.7775 22.0175 31.1358 22.0448 30.4531 22.0721C29.7705 22.0995 29.2243 22.1268 28.8147 22.1541C27.7771 22.2087 26.7258 22.3316 25.6608 22.5227C24.5958 22.7139 23.6538 22.9733 22.8346 23.301C22.0154 23.6286 21.4283 24.0519 21.0733 24.5707C20.8275 24.9257 20.7046 25.3353 20.7046 25.7995C20.7046 26.7279 21.1142 27.3969 21.9334 27.8065C21.9881 27.8612 22.0154 27.8885 22.0154 27.8885C22.0154 27.9704 21.9471 28.0523 21.8106 28.1342C21.674 28.1888 21.5375 28.2025 21.401 28.1752C21.1825 28.0387 20.9094 27.8202 20.5818 27.5198C20.2814 27.1921 19.9947 26.8508 19.7216 26.4958C19.4758 26.1408 19.312 25.8405 19.2301 25.5947C19.0935 25.1851 19.0253 24.8574 19.0253 24.6117C19.0253 23.9563 19.271 23.4238 19.7626 23.0142C20.2541 22.5773 20.8958 22.2496 21.6877 22.0312C22.4796 21.7854 23.3261 21.6216 24.2272 21.5397C25.1283 21.4304 26.0021 21.3622 26.8486 21.3349C27.6951 21.3076 28.4188 21.2939 29.0195 21.2939C30.4122 21.2939 31.6546 21.2939 32.7469 21.2939C33.8664 21.2666 34.8905 21.2529 35.8189 21.2529C36.7746 21.2529 37.6894 21.2666 38.5632 21.2939C39.4643 21.3212 40.4064 21.3622 41.3894 21.4168C42.0994 21.4441 42.5773 21.5806 42.823 21.8264C43.0961 22.0721 43.2326 22.3725 43.2326 22.7275C43.2326 23.1917 43.0825 23.6969 42.7821 24.243C42.4817 24.7892 42.2086 25.2943 41.9629 25.7586C41.8537 25.977 41.6762 26.1408 41.4304 26.2501C41.1846 26.332 41.0891 26.2501 41.1437 26.0043C41.1983 25.7585 41.2529 25.4991 41.3075 25.2261C41.3621 24.9257 41.3894 24.639 41.3894 24.3659C41.3894 23.8744 41.2939 23.4375 41.1027 23.0552C40.9116 22.6456 40.5839 22.3589 40.1197 22.195C39.8466 22.0858 39.5189 22.0175 39.1366 21.9902C38.7543 21.9356 38.3447 21.9083 37.9078 21.9083C37.0886 21.9083 36.2694 21.9902 35.4502 22.1541C34.631 22.3179 33.9893 22.5773 33.5251 22.9323C32.9517 23.3692 32.3646 24.0792 31.7638 25.0622C31.1904 26.0453 30.6443 27.0966 30.1254 28.2162C29.6066 29.3357 29.1424 30.3188 28.7328 31.1653C28.7055 31.2199 28.6918 31.3018 28.6918 31.411C28.6918 31.5476 28.8147 31.6158 29.0605 31.6158C29.4428 31.6158 29.9753 31.6158 30.6579 31.6158C31.3679 31.6158 32.1052 31.6295 32.8698 31.6568C33.6343 31.6568 34.2897 31.6568 34.8358 31.6568C35.4366 31.6568 35.9145 31.6977 36.2694 31.7797C36.6244 31.8343 36.8019 32.0118 36.8019 32.3121C36.8019 32.4214 36.7337 32.6398 36.5971 32.9675C36.406 33.4044 36.1875 33.7867 35.9418 34.1144C35.7233 34.4148 35.5458 34.7288 35.4093 35.0565C35.382 35.1657 35.2591 35.2613 35.0406 35.3432C34.8222 35.4251 34.7403 35.4115 34.7949 35.3022C34.9041 35.0565 35.0133 34.7561 35.1226 34.4011C35.2591 34.0188 35.3274 33.6911 35.3274 33.4181C35.3274 32.9812 35.1362 32.7627 34.7539 32.7627H28.3642C28.1184 32.7627 27.9273 32.8719 27.7907 33.0904C26.9988 34.6742 26.1387 36.3672 25.2102 38.1694C24.3091 39.9717 23.2578 41.5145 22.0563 42.7979C21.3737 43.5352 20.5818 44.1359 19.6806 44.6002C18.7795 45.0644 17.8511 45.2965 16.8954 45.2965Z"
    fill="#70B0E0" />
</svg>